<?xml version="1.0" encoding="UTF-8"?>
<svg width="23px" height="15px" viewBox="0 0 23 15" version="1.1" xmlns="http://www.w3.org/2000/svg" xmlns:xlink="http://www.w3.org/1999/xlink">
    <!-- Generator: Sketch 49.3 (51167) - http://www.bohemiancoding.com/sketch -->
    <title>Components / Icons / Flags / Finland</title>
    <desc>Created with Sketch.</desc>
    <defs></defs>
    <g id="Components-/-Icons-/-Flags-/-Finland" stroke="none" stroke-width="1" fill="none" fill-rule="evenodd">
        <g id="004-finland-copy" fill-rule="nonzero">
            <path d="M22.3062479,14.9754018 L0.391356348,14.9754018 C0.175241464,14.9754018 0,14.7989286 0,14.5812946 L0,0.394107143 C0,0.176473214 0.175241464,0 0.391356348,0 L22.3062922,0 C22.5224071,0 22.6976486,0.176473214 22.6976486,0.394107143 L22.6976486,14.5812946 C22.6976042,14.7989732 22.5223628,14.9754018 22.3062479,14.9754018 Z" id="Shape" fill="#F5F5F5"></path>
            <polygon id="Shape" fill="#41479B" points="22.6976042 6.30540179 9.39210904 6.30540179 9.39210904 0 7.04410394 0 7.04410394 6.30540179 0 6.30540179 0 8.66995536 7.04410394 8.66995536 7.04410394 14.9753571 9.39210904 14.9753571 9.39210904 8.66995536 22.6976042 8.66995536"></polygon>
        </g>
    </g>
</svg>