<?xml version="1.0" encoding="UTF-8"?>
<svg width="220px" height="34px" viewBox="0 0 220 34" version="1.1" xmlns="http://www.w3.org/2000/svg" xmlns:xlink="http://www.w3.org/1999/xlink">
    <!-- Generator: Sketch 51.3 (57544) - http://www.bohemiancoding.com/sketch -->
    <title>Group 20 Copy</title>
    <desc>Created with Sketch.</desc>
    <defs></defs>
    <g id="Symbols" stroke="none" stroke-width="1" fill="none" fill-rule="evenodd">
        <g id="Banners-/-General-Banners-/-Header" transform="translate(-610.000000, -51.000000)" fill="#444444">
            <g id="Group-20-Copy" transform="translate(610.000000, 51.000000)">
                <path d="M24.9831762,1.23498528 C21.7540393,0.0330504536 18.1766022,0 14.7947021,0 L1.94370377,0 C0.700488842,0 0.405516935,0.445630282 0.396628892,0.754652023 C0.387185347,1.06752965 0.66438117,1.31816226 1.30876424,1.48341452 C1.61706822,1.56163393 2.12035362,1.66574286 2.53975812,1.74671647 C4.18237946,2.06455167 4.41235755,2.49255504 4.5484557,4.48604823 C4.56012126,4.99833026 4.57178681,5.18781953 4.57178681,5.79043947 L4.57178681,25.8360904 C4.57178681,29.7134595 4.50901501,30.0891329 1.47985906,30.4945518 C0.728263975,30.5948049 0,30.7214983 0,31.2756442 C0,31.7835195 0.529394026,32 1.10156176,32 L6.57270736,32 L14.1375425,32 C18.5832302,32 22.7844967,31.4177612 26.2541663,29.6749006 C32.3119227,26.6215895 35,21.0994096 35,15.7204482 C35,8.50278003 30.8309526,3.41135765 24.9831762,1.23498528 M14.9344258,30.5454545 C9.85626817,30.5454545 8.75,28.0329619 8.75,23.2924516 L8.76851951,5.09382607 C8.80011161,3.88869635 8.83715062,3.14861669 9.33173038,2.61022541 C9.85790225,2.03794158 11.3269349,1.45454545 13.7867611,1.45454545 C21.7877327,1.45454545 29.1666667,6.2306151 29.1666667,15.906101 C29.1666667,24.1642121 23.4615692,30.5454545 14.9344258,30.5454545" id="Fill-44"></path>
                <path d="M46.9582742,7.62242601 C47.4817444,7.37965819 48.7658026,7.25827428 50.8087512,7.25827428 C52.8545293,7.25935807 54.489454,7.41650688 55.7152232,7.73297207 C56.943256,8.03209671 57.933605,8.50733639 58.6953248,9.15923301 C59.1593741,9.49574823 59.5396681,10.0809921 59.8333773,10.9192997 C60.1259547,11.7429762 60.1904689,12.1488537 60.6381067,12.1488537 C60.9923687,12.1488537 61.147429,11.844852 61.147429,11.2276365 L61.147429,7.03501459 C61.147429,6.624802 61.062542,6.35493956 60.8842791,6.22434348 C60.7269551,6.07586494 60.2991243,6 59.6007868,6 L38.8973991,6 C38.5188028,6 37.9919372,6.0791163 37.9925031,6.59770738 C37.9936349,7.1634431 38.6659404,7.26206753 39.8973687,7.45606503 C40.3976364,7.53518133 40.7767986,7.62838683 41.029762,7.80016674 C41.2821596,7.96598583 41.4649497,8.29274698 41.5826597,8.77665694 C41.6986721,9.24376824 41.7592248,9.81979992 41.7592248,10.6982076 L41.7592248,28.0588162 C41.7569612,28.9551063 41.5798302,29.5002501 41.2034975,29.8329721 C40.839615,30.1548562 40.5911789,30.2285536 39.7462697,30.3905794 C39.1826196,30.498416 38.8074188,30.5520634 38.0275897,30.6777824 C37.3541524,30.7867028 36.9851766,30.9747395 37.0004563,31.3865777 C37.0146042,31.7962484 37.3496251,32 38.0502263,32 L60.2397034,32 C60.5119079,32 60.6867752,31.8975823 60.7660032,31.6954564 C60.845797,31.4906211 60.9708639,31.0040017 61.147429,30.2410171 C61.7105132,27.3158816 61.92839,26.2082534 61.9929041,25.6544393 C62.0285567,25.348812 61.9368787,24.9743643 61.5571505,24.9884535 C61.1004582,25.0041684 60.9408705,25.4864527 60.5328467,26.3269279 C60.1259547,27.1457274 59.7151014,27.8339308 59.3076435,28.3937057 C58.313899,29.8118383 56.1130605,30.5200917 52.7090895,30.5200917 C50.1358798,30.5200917 48.4047497,30.3526469 47.5100401,30.0166736 C46.6362693,29.6639016 46.1976862,29.1030429 46.1976862,28.3389746 L46.1976862,19.9233847 C46.1976862,19.1956232 46.7121017,18.833639 47.7420647,18.833639 L52.4148143,18.833639 C53.2116209,18.8347228 53.9931477,18.9642351 54.7531698,19.2243435 C55.5307353,19.4681951 56.0270416,19.8220509 56.2992461,20.2604419 C56.5357981,20.6413922 57.1237824,22.2318466 57.212065,22.5044185 C57.3393956,22.8956649 57.6438571,23.4597749 57.9590711,23.3812005 C58.2827737,23.3004585 58.2969216,22.8685702 58.2827737,22.3158399 C58.2584395,21.3615673 58.2844715,18.4976657 58.2844715,18.4976657 C58.3054103,17.6409337 58.3438924,16.9131722 58.4004838,16.3176323 C58.4785799,15.7015006 58.4944255,15.4099625 58.5215893,15.0588162 C58.5662965,14.4827845 58.5227212,14.0205502 58.1877002,13.9538975 C57.8758818,13.8915798 57.5810407,14.4502709 57.4571056,14.7661942 C57.2454539,15.3080867 56.9636288,15.87599 56.4673225,16.4585244 C55.9495115,17.0676115 55.132332,17.3228429 54.6065982,17.4350146 C54.0802984,17.5276782 53.3508356,17.5748228 52.4148143,17.5748228 L47.8637362,17.5748228 C46.7505839,17.5748228 46.1976862,17.2491455 46.1976862,16.5961651 L46.1976862,8.87961651 C46.1976862,8.26565236 46.4517814,7.84460192 46.9582742,7.62242601" id="Fill-46"></path>
                <path d="M125.38024,30.8258624 C124.850697,30.7180887 124.139038,30.628187 123.283925,30.5177054 C122.70395,30.4418847 122.1929,30.3314031 121.811293,30.1250625 C121.440334,29.9035577 121.259337,29.558032 121.259337,29.0917347 L121.259337,9.67134644 C121.259337,9.05828195 121.336667,8.5936094 121.489646,8.27570405 C121.645987,7.94100983 121.866769,7.73466922 122.155916,7.65993168 C122.443942,7.56840527 124.850697,7.35285786 125.236787,7.26349775 C125.641929,7.16926346 125.866634,7.01491418 125.866634,6.63147809 C125.866634,6.20309115 125.449164,6 124.79298,6 C124.174901,6 119.63933,6.0113731 119.002759,6.0113731 C118.309591,6.01245626 117.62707,6.64555907 116.951834,7.91176471 L108.769427,23.8655224 C108.578343,24.2121313 108.494849,24.397892 108.364845,24.397892 C108.211306,24.397892 108.057767,24.2121313 107.873408,23.8655224 L98.8241204,6.87735377 C98.6117432,6.46900517 98.2049204,6 97.619342,6 L91.4800151,6.0113731 C90.7291299,6.01245626 90.354808,6.2041743 90.3525666,6.65530745 C90.3503251,7.08423596 90.7050343,7.21908849 91.0787958,7.28624396 C91.7495492,7.40809865 93.7808618,7.60577404 94.1708738,7.82944509 C94.5547218,8.05149142 94.7463656,8.44305116 94.7463656,9.00249958 C94.7463656,9.20667389 94.7004159,9.82136311 94.6017922,10.8460257 C94.525583,11.8544409 94.4465719,13.0453674 94.3698023,14.4225962 L93.4446445,28.115814 C93.330891,29.5672388 92.5211678,30.369855 91.0149146,30.5177054 C90.4142064,30.5810698 89.5826291,30.631978 88.8580809,30.5177054 C88.0606857,30.3915181 87.4229937,30.1191051 86.9214696,29.8190718 C86.4406789,29.5206632 85.9677334,28.9725879 85.5048743,28.1699717 L80.7653319,20.2634978 C80.7053731,20.169805 80.5809727,19.9916264 80.3904496,19.7305866 C80.2150563,19.4722546 80.0895352,19.2756624 80.0122052,19.1467672 C79.9544879,19.0146226 79.9253491,18.893851 79.9253491,18.7817447 C79.9253491,18.5943593 80.3977343,18.2970338 81.3419444,17.8870605 C82.3057672,17.4792535 83.133422,16.852108 83.8271502,16.0148309 C84.5421722,15.175929 84.8996832,13.9292201 84.8996832,12.2703716 C84.8968814,10.4257624 84.1953081,8.92722046 82.78992,7.77149642 C81.3806094,6.59790035 78.909973,6.0113731 76.4466213,6.0113731 L64.592722,6.0113731 C64.1466738,6.0113731 63.7701105,6.15109982 63.7701105,6.60873188 C63.7701105,7.05390768 64.495219,7.21313114 65.0527793,7.32090485 C65.6994371,7.446009 66.504117,7.54728379 66.9042156,7.84677554 C67.1754308,8.04932511 67.2650887,8.42788702 67.2650887,8.92938677 L67.2650887,28.6714714 C67.2650887,29.3256957 67.0599962,29.7822446 66.6537337,30.0427429 C66.2710064,30.3054074 65.7470679,30.3790618 65.1233849,30.5177054 C64.4296566,30.6715131 64.117535,30.7197134 63.6597191,30.8291118 C63.3027685,30.9141393 63.052847,31.0999 63.006337,31.3928929 C62.9531026,31.7270455 63.2394476,32 63.7079103,32 L75.2558519,32 C75.738884,31.9983753 75.9053116,31.6636811 75.9053116,31.4389268 C75.9053116,31.1605566 75.7265561,30.9634228 75.3583982,30.8534828 C74.9762313,30.7386686 74.3699195,30.6482253 73.4206661,30.5177054 C72.2310174,30.3530662 71.6280679,29.8093234 71.6280679,28.7288785 L71.6280679,20.7931595 C71.6280679,20.1605982 71.7636755,19.7132561 72.0343304,19.45005 C72.3223565,19.1922596 72.801466,19.0622813 73.4795042,19.0622813 C74.9241176,19.0622813 76.0347552,19.7132561 76.8058134,21.0179137 L82.5265499,31.0771538 C82.8750951,31.691843 83.5396845,32 84.2395767,32 L99.7963486,31.996209 C100.372961,31.996209 100.666031,31.7714548 100.666031,31.4432595 C100.666031,31.0522413 100.304597,30.8729795 100.019933,30.7830778 C99.7560026,30.6996751 99.3884051,30.6525579 98.3276396,30.504166 C96.7664709,30.2626229 95.9332125,29.7762873 95.9332125,28.7879103 L95.9892487,13.4168889 C95.9892487,12.4490918 96.0648976,11.9643809 96.2206782,11.9643809 C96.30081,11.9643809 96.587155,12.4675054 97.0886791,13.4726712 L106.107707,30.4608399 C106.346421,30.897892 106.476985,31.0776954 106.733071,31.0771538 C106.947689,31.0766122 107.042391,30.8897684 107.236276,30.5177054 L116.111851,12.8292785 C116.421731,12.2530412 116.593202,11.9643809 116.634108,11.9643809 C116.692386,11.9643809 116.748422,12.0748625 116.80726,12.2990752 C116.865538,12.5227462 116.895237,12.7729545 116.895237,13.0524079 L116.895237,28.7288785 C116.894116,29.306199 116.704714,29.7215881 116.343841,29.9869605 C115.993614,30.2442093 115.488168,30.4380937 114.811811,30.5177054 C114.032908,30.6086902 113.515133,30.7034661 113.196847,30.784161 C112.800111,30.8848942 112.493033,31.0489918 112.493033,31.4107649 C112.493033,31.8164056 112.911063,31.996209 114.031226,31.996209 L124.814274,31.996209 C125.682835,31.996209 126,31.7931178 126,31.3831445 C125.997198,31.1231878 125.777536,30.9070988 125.38024,30.8258624 M74.7306912,17.5555556 C73.5008134,17.5555556 72.7064508,17.487337 72.3401496,17.3483544 C71.9727835,17.188499 71.7906977,16.8830427 71.7906977,16.4268947 L71.7906977,8.41579533 C71.7906977,8.06604792 71.9632,7.82117382 72.3103343,7.68117304 C72.6777004,7.52284488 73.3916684,7.44444444 74.454368,7.44444444 C75.4632937,7.44444444 76.3316619,7.55797235 77.0663941,7.78604636 C77.814969,7.99732026 78.44801,8.32008571 78.9612577,8.75739724 C79.473973,9.17943597 79.8668949,9.72212991 80.140556,10.3854791 C80.4349813,11.0355918 80.5813953,11.796687 80.5813953,12.670801 C80.5803305,14.2301551 80.0947684,15.4382346 79.124709,16.2950394 C78.1546495,17.1360623 76.6894445,17.5555556 74.7306912,17.5555556" id="Fill-48"></path>
                <path d="M157,20.0146603 C157,17.9970759 156.642633,16.1316263 155.924604,14.4205244 C155.208223,12.6889534 154.205838,11.205224 152.924585,9.96767629 C151.657606,8.73012862 150.14799,7.75978504 148.391345,7.05609231 C146.634152,6.35239958 144.747407,6 142.726717,6 C139.875464,6 137.325585,6.60909253 135.079825,7.82561792 C132.852181,9.02388714 131.113652,10.6907316 129.869728,12.8228321 C128.624158,14.9328038 128,17.3315551 128,20.0146603 C128,22.6606998 128.613728,25.0378756 129.839536,27.1500603 C131.06754,29.2644577 132.775876,30.9368344 134.966192,32.1738289 C137.154861,33.3920139 139.628985,34 142.386367,34 C145.182725,34 147.683747,33.3920139 149.892727,32.1738289 C152.118725,30.9368344 153.858352,29.2644577 155.101726,27.1500603 C156.370353,25.0201727 157,22.6396776 157,20.0146603 M152.65,19.9860936 C152.65,22.6255256 152.285733,24.8922664 151.557199,26.7874286 C150.845519,28.6820346 149.779903,30.1177298 148.360892,31.0922893 C146.935358,32.0501612 145.152081,32.5263158 143.000731,32.5263158 C140.044732,32.5263158 137.773228,31.4482928 136.184589,29.2866842 C134.593776,27.1044942 133.8,24.0055953 133.8,19.9860936 C133.8,17.3839308 134.221354,15.1361026 135.063517,13.2426092 C135.901875,11.3285343 137.046325,9.89339528 138.485452,8.9349672 C139.944151,7.96152021 141.560517,7.47368421 143.337814,7.47368421 C144.704087,7.47368421 145.944769,7.75014315 147.070735,8.30639857 C148.208661,8.85931646 149.179678,9.66199303 149.985414,10.713872 C150.809636,11.7496196 151.453356,13.0523698 151.921466,14.6187851 C152.405887,16.1890941 152.65,17.9763428 152.65,19.9860936" id="Fill-50"></path>
                <path d="M161.156172,32.4587359 C161.942413,32.9527592 163.047734,33.3350325 164.468222,33.6016834 C165.893738,33.8655681 167.507573,34 169.315873,34 C172.197082,34 174.534014,33.2481773 176.318844,31.7450853 C178.108703,30.2430996 179,28.2432181 179,25.7520795 C179,23.7721139 178.360166,22.1832731 177.06988,20.9838974 C175.78183,19.785075 173.890268,18.6144666 171.392959,17.4731788 C168.913532,16.3130816 167.131496,15.3709521 166.05691,14.6473436 C165.000206,13.9265011 164.468222,12.926837 164.468222,11.6500109 C164.468222,8.92928694 166.028411,7.56892498 169.142084,7.56892498 C170.850357,7.56892498 172.14679,7.90804734 173.062675,8.53816213 C174.477015,9.51237824 175.385077,11.1377314 175.891356,12.3918756 C176.074645,12.845514 176.187524,13.4551597 176.675921,13.4551597 C177.164878,13.4551597 177.36046,13.1066327 177.36046,12.3642147 C177.36046,12.1556517 177.339784,11.7650801 177.298991,11.1925 C177.260992,10.6226859 177.21517,10.0722344 177.159289,9.53837947 C177.121291,8.98626835 177.090556,8.56748266 177.06988,8.28257562 C177.031881,7.82561792 176.339519,7.33214787 174.997824,6.79829293 C173.666186,6.26665086 172.128349,6 170.382077,6 C168.571542,6 166.97056,6.27550234 165.568513,6.82650702 C164.18323,7.38027779 163.106409,8.18631577 162.336931,9.25291921 C161.568572,10.317863 161.181318,11.6134985 161.181318,13.1337403 C161.181318,15.1894968 161.799918,16.8463833 163.029852,18.1010808 C164.277109,19.337522 166.077027,20.5368976 168.421782,21.6986545 C170.787212,22.8598581 172.525661,23.8484579 173.64104,24.6672199 C174.773742,25.4644064 175.338696,26.5487128 175.338696,27.9201391 C175.338696,29.3474404 174.84024,30.470472 173.841652,31.2881276 C172.841387,32.0880801 171.333725,32.4863968 169.315873,32.4863968 C167.332667,32.4863968 165.7993,32.1362101 164.699568,31.4303045 C163.605423,30.727165 162.859416,29.9604054 162.482221,29.1189615 C162.108379,28.2858159 161.807741,27.3586233 161.560748,26.3495545 C161.31152,25.3233359 161.141643,24.8005453 160.643746,24.8005453 C160.104497,24.8005453 160,25.2945686 160,26.2632525 L160,30.717207 C160,31.3827278 160.387253,31.9647126 161.156172,32.4587359" id="Fill-52"></path>
                <path d="M188.643112,9.55274455 L188.643112,28.3919893 C188.643112,29.1191181 188.819989,29.6436044 189.173744,29.9584045 C189.526928,30.2780811 190.152845,30.4910182 190.951076,30.6102196 C191.791528,30.735923 192.216605,30.763556 192.483632,30.8648773 C192.784894,30.9781186 193,31.1433752 193,31.4408369 C193,31.7778519 192.72042,32 192.127595,32 L180.736694,32 C180.246002,32 179.979545,31.7209603 180.001227,31.385029 C180.020056,31.1011128 180.207774,30.9125578 180.5427,30.8307423 C181.024263,30.7120827 181.25135,30.6763223 181.786547,30.5706664 C182.572795,30.4162464 183.183307,30.2710374 183.579285,29.9584045 C183.988385,29.635477 184.197785,29.1218272 184.197785,28.3919893 L184.197785,9.55274455 C184.197785,8.80665194 184.060277,8.29516942 183.78469,8.01287876 C183.530215,7.73438086 183.220965,7.51385821 182.23787,7.32692869 C181.257627,7.14108282 180.514742,6.96661526 180.514742,6.54345017 C180.514742,6.23786104 180.743541,6.0021673 181.315255,6 L191.561017,6 C192.13273,6 192.406605,6.13545617 192.406605,6.50768974 C192.406605,6.89671988 192.153271,7.02838328 190.791316,7.34372525 C189.934887,7.54149127 189.350621,7.72679532 189.056206,7.98578752 C188.78062,8.24965615 188.643112,8.76764056 188.643112,9.55274455" id="Fill-54"></path>
                <path d="M219.97538,26.4301582 C220.06592,26.0237981 219.907202,25.6179799 219.49159,25.6618668 C219.054161,25.7084627 219.03398,26.01242 218.614551,26.6588034 C218.219665,27.2667181 217.724421,27.8231604 217.180635,28.3660575 C216.636303,28.9051618 215.781626,29.398212 214.618785,29.8479171 C213.453217,30.2932878 211.984394,30.5154313 210.200317,30.5154313 C208.155528,30.5154313 206.848695,30.4227812 206.289637,30.237481 C205.742033,30.0315919 205.474776,29.6685769 205.474776,29.1468106 L205.474776,9.27038573 C205.474776,8.63700586 205.545681,8.13962115 205.887661,7.81615854 C206.213823,7.50678309 206.825242,7.38812595 207.669556,7.2407527 C208.800762,7.042449 209.104017,6.79429846 209.104017,6.46162502 C209.104017,6.14683143 208.883121,6 208.395513,6 L198.668993,6 C197.808862,6 197.653962,6.21889262 197.653962,6.56402776 C197.653962,6.93787901 198.270835,7.12697189 198.695719,7.2163711 C200.231629,7.54091733 200.222356,7.52845562 200.617242,7.71429762 C201.010492,7.90013962 201.224843,8.45170567 201.224843,9.21403714 L201.224843,28.1124888 C201.224843,28.8753621 201.026309,29.4626878 200.633605,29.8722987 C200.256173,30.2661971 199.782746,30.4563736 199.309319,30.5154313 C198.127934,30.6628045 197.956671,30.690437 197.561785,30.7841707 C197.244895,30.8621918 197,31.0729573 197,31.3704128 C197,31.7420968 197.363797,31.9317315 197.673597,31.9317315 C197.74832,31.9317315 216.738297,32 217.711876,32 C218.428016,32 218.829992,31.7767729 218.922714,31.3265259 C218.922714,31.3265259 219.835206,27.0570363 219.97538,26.4301582" id="Fill-56"></path>
            </g>
        </g>
    </g>
</svg>