<?xml version="1.0" encoding="UTF-8"?>
<svg width="20px" height="20px" viewBox="0 0 20 20" version="1.1" xmlns="http://www.w3.org/2000/svg" xmlns:xlink="http://www.w3.org/1999/xlink">
    <!-- Generator: Sketch 55.1 (78136) - https://sketchapp.com -->
    <title>Components / icons / instagram</title>
    <desc>Created with Sketch.</desc>
    <g id="Components-/-icons-/-instagram" stroke="none" stroke-width="1" fill="none" fill-rule="evenodd">
        <path d="M9.96333333,4.85222222 C7.13666667,4.85222222 4.85666667,7.13222222 4.85666667,9.95888889 C4.85666667,12.7855556 7.13666667,15.0655556 9.96333333,15.0655556 C12.79,15.0655556 15.07,12.7855556 15.07,9.95888889 C15.07,7.13222222 12.79,4.85222222 9.96333333,4.85222222 Z M9.96333333,13.2788889 C8.13666667,13.2788889 6.64333333,11.79 6.64333333,9.95888889 C6.64333333,8.12777778 8.13222222,6.63888889 9.96333333,6.63888889 C11.7944444,6.63888889 13.2833333,8.12777778 13.2833333,9.95888889 C13.2833333,11.79 11.79,13.2788889 9.96333333,13.2788889 L9.96333333,13.2788889 Z M16.47,4.64333333 C16.47,5.30555556 15.9366667,5.83444444 15.2788889,5.83444444 C14.6166667,5.83444444 14.0877778,5.30111111 14.0877778,4.64333333 C14.0877778,3.98555556 14.6211111,3.45222222 15.2788889,3.45222222 C15.9366667,3.45222222 16.47,3.98555556 16.47,4.64333333 Z M19.8522222,5.85222222 C19.7766667,4.25666667 19.4122222,2.84333333 18.2433333,1.67888889 C17.0788889,0.514444444 15.6655556,0.15 14.07,0.07 C12.4255556,-0.0233333333 7.49666667,-0.0233333333 5.85222222,0.07 C4.26111111,0.145555556 2.84777778,0.51 1.67888889,1.67444444 C0.51,2.83888889 0.15,4.25222222 0.07,5.84777778 C-0.0233333333,7.49222222 -0.0233333333,12.4211111 0.07,14.0655556 C0.145555556,15.6611111 0.51,17.0744444 1.67888889,18.2388889 C2.84777778,19.4033333 4.25666667,19.7677778 5.85222222,19.8477778 C7.49666667,19.9411111 12.4255556,19.9411111 14.07,19.8477778 C15.6655556,19.7722222 17.0788889,19.4077778 18.2433333,18.2388889 C19.4077778,17.0744444 19.7722222,15.6611111 19.8522222,14.0655556 C19.9455556,12.4211111 19.9455556,7.49666667 19.8522222,5.85222222 Z M17.7277778,15.83 C17.3811111,16.7011111 16.71,17.3722222 15.8344444,17.7233333 C14.5233333,18.2433333 11.4122222,18.1233333 9.96333333,18.1233333 C8.51444444,18.1233333 5.39888889,18.2388889 4.09222222,17.7233333 C3.22111111,17.3766667 2.55,16.7055556 2.19888889,15.83 C1.67888889,14.5188889 1.79888889,11.4077778 1.79888889,9.95888889 C1.79888889,8.51 1.68333333,5.39444444 2.19888889,4.08777778 C2.54555556,3.21666667 3.21666667,2.54555556 4.09222222,2.19444444 C5.40333333,1.67444444 8.51444444,1.79444444 9.96333333,1.79444444 C11.4122222,1.79444444 14.5277778,1.67888889 15.8344444,2.19444444 C16.7055556,2.54111111 17.3766667,3.21222222 17.7277778,4.08777778 C18.2477778,5.39888889 18.1277778,8.51 18.1277778,9.95888889 C18.1277778,11.4077778 18.2477778,14.5233333 17.7277778,15.83 Z" id="Shape" fill="#000000" fill-rule="nonzero"></path>
    </g>
</svg>