<?xml version="1.0" encoding="UTF-8"?>
<svg width="15px" height="20px" viewBox="0 0 15 20" version="1.1" xmlns="http://www.w3.org/2000/svg" xmlns:xlink="http://www.w3.org/1999/xlink">
    <!-- Generator: Sketch 55.1 (78136) - https://sketchapp.com -->
    <title>Components / Icons / pinterest</title>
    <desc>Created with Sketch.</desc>
    <g id="Components-/-Icons-/-pinterest" stroke="none" stroke-width="1" fill="none" fill-rule="evenodd">
        <path d="M0,12.8257986 C0,13.691193 0.147195332,14.5076028 0.43959687,15.270946 C0.731998409,16.0342892 1.13579101,16.7037453 1.6529638,17.2731911 C2.17013659,17.842637 2.76289617,18.3345239 3.43323167,18.7508929 C4.10555629,19.167262 4.82760907,19.4795387 5.60137913,19.6877232 C6.37514918,19.8959077 7.16284312,20 7.9684392,20 C9.20169739,20 10.3514123,19.7326258 11.4136056,19.1999184 C12.475799,18.6672109 13.3390797,17.8916216 14.0034478,16.8731503 C14.6678159,15.854679 15,14.7055822 15,13.4238188 C15,12.6543525 14.9264023,11.9012144 14.7772179,11.1644045 C14.6280334,10.4275947 14.3953057,9.71731809 14.0750564,9.0376569 C13.7548071,8.35799571 13.3649383,7.75793448 12.9034611,7.24155526 C12.4419838,6.72517604 11.877072,6.31288907 11.2047474,6.00265333 C10.5324228,5.69445862 9.79445697,5.53934075 8.99085002,5.53934075 C8.45975335,5.53934075 7.93263493,5.6679253 7.40949476,5.92305337 C6.88635459,6.18022247 6.51040976,6.5312787 6.28563851,6.98030411 C6.20806259,6.66802735 6.09866066,6.21696091 5.9574327,5.62710481 C5.81620475,5.0372487 5.72470495,4.65761812 5.6829333,4.48617206 C5.63917252,4.31472599 5.55960748,4.02898255 5.44224904,3.63302378 C5.3248906,3.23706501 5.22344517,2.95132156 5.13791274,2.7798755 C5.05238032,2.60842943 4.92706538,2.35738341 4.76395703,2.02877845 C4.60084869,1.70017349 4.41983822,1.38993775 4.22490386,1.09807123 C4.0299695,0.806204715 3.78729611,0.459230534 3.49887283,0.0591897132 L3.33576449,0 L3.2303408,0.120420451 C3.11298236,1.3776916 3.05529771,2.1328707 3.05529771,2.37983468 C3.05529771,3.11664456 3.138841,3.94530054 3.30791672,4.86172058 C3.47500332,5.78018165 3.73557884,6.93131952 4.08765416,8.31717522 C4.43972948,9.70303092 4.64262034,10.5173997 4.69632675,10.7582406 C4.44569686,11.2787019 4.32237104,11.9563221 4.32237104,12.7890601 C4.32237104,13.4544341 4.5252619,14.0789877 4.93104363,14.6647617 C5.33682535,15.2505358 5.85200902,15.5424023 6.47659462,15.5424023 C6.95398488,15.5424023 7.32396234,15.3791203 7.58851611,15.0545974 C7.85505901,14.7300745 7.98634133,14.3198286 7.98634133,13.8218186 C7.98634133,13.2931932 7.81527649,12.527809 7.47115767,11.5256659 C7.12703885,10.5235228 6.95597401,9.77446678 6.95597401,9.27849781 C6.95597401,8.77436473 7.13101711,8.35391366 7.48309243,8.02326768 C7.83516775,7.69058067 8.26084074,7.52525768 8.76011139,7.52525768 C9.18976263,7.52525768 9.58758785,7.62526788 9.95557618,7.82528829 C10.3235645,8.0253087 10.6298899,8.298806 10.8745524,8.64169813 C11.119215,8.98459026 11.340008,9.36626186 11.5309641,9.78467191 C11.7219202,10.2010409 11.8711046,10.6439433 11.9765283,11.1133789 C12.081952,11.5828146 12.1595279,12.0277579 12.2112452,12.448209 C12.2629625,12.8686601 12.286832,13.2666599 12.286832,13.6442494 C12.286832,15.0301051 11.8591699,16.1098071 11.0038456,16.8833554 C10.1485214,17.6569038 9.03461079,18.0426574 7.66012465,18.0426574 C6.09866066,18.0426574 4.79379393,17.5242372 3.74751359,16.4853556 C2.70123326,15.4485152 2.17809309,14.1320543 2.17809309,12.5359731 C2.17809309,12.1828758 2.22782124,11.8420247 2.32528842,11.5134197 C2.4227556,11.1848148 2.52817929,10.9235636 2.64155947,10.7317073 C2.75493966,10.539851 2.86036335,10.3561588 2.95783053,10.1847127 C3.05529771,10.0132667 3.10502586,9.89080518 3.10502586,9.8173283 C3.10502586,9.59281559 3.0473412,9.30094908 2.92998276,8.93968772 C2.81262432,8.57842637 2.66741811,8.39881621 2.49635327,8.39881621 C2.48044026,8.39881621 2.4147991,8.41106235 2.29744066,8.43555465 C1.89961544,8.5559751 1.54555099,8.7804878 1.23723644,9.10909276 C0.928921894,9.43769772 0.69022676,9.8173283 0.523140167,10.2459435 C0.356053574,10.6745586 0.228749503,11.1072558 0.14321708,11.5440351 C0.0417716483,11.9828554 0,12.4094295 0,12.8257986 Z" id="Shape" fill="#444444" fill-rule="nonzero" transform="translate(7.500000, 10.000000) scale(1, -1) translate(-7.500000, -10.000000) "></path>
    </g>
</svg>