<?xml version="1.0" encoding="UTF-8"?>
<svg width="25px" height="14px" viewBox="0 0 25 14" version="1.1" xmlns="http://www.w3.org/2000/svg" xmlns:xlink="http://www.w3.org/1999/xlink">
    <!-- Generator: Sketch 55.1 (78136) - https://sketchapp.com -->
    <title>Components / Icons / VK</title>
    <desc>Created with Sketch.</desc>
    <g id="Components-/-Icons-/-VK" stroke="none" stroke-width="1" fill="none" fill-rule="evenodd">
        <path d="M24.370065,12.4459814 C24.3403983,12.3829475 24.3127422,12.3306615 24.2870519,12.2887711 C23.8619783,11.5339943 23.0496741,10.6075593 21.8506307,9.5092016 L21.8252979,9.48404971 L21.8126091,9.47171604 L21.7997863,9.45907402 L21.7869188,9.45907402 C21.2427317,8.94762302 20.8981246,8.60373377 20.7538122,8.42767058 C20.4897609,8.09228276 20.4306062,7.7527984 20.5749186,7.40882106 C20.6768754,7.14893294 21.0598616,6.60008447 21.7229835,5.76152683 C22.0717905,5.31711814 22.3480391,4.96093927 22.5520423,4.69259378 C24.023358,2.76413584 24.6612364,1.53182567 24.4655435,0.995178726 L24.3895449,0.869771697 C24.3384771,0.794271996 24.2066748,0.725203424 23.9943168,0.662213592 C23.7814673,0.599355906 23.5094184,0.588960382 23.1776787,0.630850823 L19.5040138,0.65587056 C19.4445017,0.635079511 19.3595227,0.637017659 19.2488088,0.662213592 C19.1382289,0.687409525 19.0829166,0.70005154 19.0829166,0.70005154 L19.0189813,0.731546456 L18.9682263,0.769384405 C18.9256921,0.794404142 18.8789135,0.838408927 18.8278457,0.901310661 C18.7770459,0.963992152 18.7345565,1.0375537 18.7006006,1.12137863 C18.3006365,2.13586732 17.8458963,3.079085 17.335531,3.95098761 C17.0208586,4.470896 16.7318765,4.92147152 16.4679591,5.30297847 C16.2043992,5.68435327 15.9832841,5.96534078 15.8048372,6.14545646 C15.6261223,6.32574834 15.464832,6.47018446 15.3199835,6.57929342 C15.1753584,6.68844643 15.0649573,6.73456556 14.9885119,6.71769486 C14.9118879,6.70082416 14.8397317,6.6840856 14.7714179,6.66734704 C14.6524384,6.59184734 14.5567366,6.48916951 14.4845804,6.35922545 C14.4121115,6.22928139 14.3633223,6.06572807 14.3378107,5.86869764 C14.3124332,5.67153506 14.2974211,5.50194705 14.293132,5.35936097 C14.2891556,5.21695109 14.2909874,5.01551578 14.2996104,4.75562766 C14.3084568,4.49560739 14.3124332,4.31967635 14.3124332,4.22743809 C14.3124332,3.90878883 14.3187329,3.56296144 14.331377,3.18986782 C14.3442445,2.81677419 14.3546546,2.52116247 14.363367,2.30338504 C14.3720346,2.08538736 14.3760557,1.85474767 14.3760557,1.6115981 C14.3760557,1.36844854 14.3610437,1.17776114 14.331377,1.03935971 C14.3020677,0.901134466 14.2570762,0.766961719 14.1977875,0.636885513 C14.1381414,0.506941453 14.0508391,0.406422015 13.9362829,0.335062904 C13.8215032,0.263791891 13.6787993,0.207233189 13.5089754,0.165210601 C13.0582115,0.0646471141 12.4842237,0.0102468045 11.7867439,0.00178942844 C10.2050717,-0.0149491284 9.18876431,0.0857465055 8.73804515,0.303744183 C8.55946421,0.395850295 8.3978612,0.521697813 8.25337015,0.680890298 C8.10025609,0.865410862 8.07889965,0.966106496 8.18943486,0.982668857 C8.69975547,1.05803641 9.06102778,1.23832829 9.27365392,1.52336829 L9.35027796,1.67441174 C9.40987941,1.78338856 9.46939149,1.97632245 9.52894826,2.25294912 C9.58841566,2.5295758 9.6267947,2.83558305 9.64368327,3.17079467 C9.68612807,3.78294131 9.68612807,4.30694624 9.64368327,4.7428535 C9.60110443,5.17893695 9.56089356,5.51842131 9.52251452,5.76157087 C9.48413548,6.00472044 9.42676797,6.20175087 9.35027796,6.35261812 C9.27365392,6.50352943 9.22267547,6.59576769 9.19711923,6.6292448 C9.17160767,6.66272191 9.15034059,6.68382131 9.13345202,6.69210249 C9.02291681,6.73386078 8.90795841,6.75513637 8.78897892,6.75513637 C8.66982071,6.75513637 8.52532965,6.69637522 8.35528236,6.57894103 C8.18527974,6.46150684 8.00884339,6.30020001 7.82597329,6.09475625 C7.6431032,5.88926844 7.43686612,5.6021141 7.2071727,5.23324916 C6.977658,4.86438423 6.7395203,4.42843292 6.49289364,3.92539524 L6.28884582,3.5605828 C6.16128801,3.32589061 5.98704091,2.98415976 5.76592581,2.53569859 C5.54467668,2.08706122 5.34911782,1.65309211 5.1791152,1.23387936 C5.11115883,1.05781617 5.00906791,0.923775567 4.87302113,0.831537309 L4.80917521,0.793699361 C4.7667304,0.760222247 4.69859532,0.724674838 4.60512739,0.686792841 C4.51152543,0.648954893 4.41385769,0.621820812 4.31172209,0.605126304 L0.816548706,0.630146041 C0.459386835,0.630146041 0.217049333,0.709918479 0.0894468434,0.869243111 L0.0383790402,0.944610665 C0.012867478,0.986589203 0,1.05363153 0,1.14591383 C0,1.23815209 0.0255115622,1.3513576 0.0765793654,1.4853982 C0.58681061,2.66766889 1.14167592,3.80787295 1.74117529,4.90618657 C2.34067466,6.00450019 2.86162881,6.88922102 3.30372497,7.55955617 C3.74591049,8.23037586 4.19662964,8.86348974 4.65588244,9.45858949 C5.11513524,10.0539095 5.41912941,10.4354164 5.56786494,10.6030222 C5.71677919,10.7709364 5.83374814,10.8964756 5.91877179,10.9803005 L6.23773334,11.2820791 C6.44182583,11.4833382 6.74153084,11.7243734 7.1369824,12.0051847 C7.53252331,12.2861722 7.97041967,12.5627989 8.45089487,12.8355052 C8.93145943,13.1077711 9.49052454,13.3299534 10.128403,13.5017879 C10.766192,13.6737986 11.3869585,13.7428231 11.9907917,13.7095222 L13.4577735,13.7095222 C13.7552893,13.6841941 13.9806935,13.5919558 14.1338969,13.4327634 L14.184652,13.3697295 C14.2187865,13.31969 14.2507318,13.2419438 14.2802198,13.1373278 C14.3100652,13.0325357 14.3248986,12.9170837 14.3248986,12.7915004 C14.3161862,12.4310488 14.3440211,12.1061887 14.4076436,11.816964 C14.4712214,11.5278275 14.5436904,11.3098298 14.6247376,11.1630151 C14.7057402,11.0163324 14.7971529,10.8925552 14.8988864,10.792212 C15.0008433,10.6916485 15.0734909,10.630729 15.1161144,10.6097617 C15.1584699,10.5886623 15.1922917,10.5743464 15.2178032,10.5657569 C15.4218957,10.4987146 15.6620887,10.5636426 15.9387394,10.7608492 C16.2151668,10.9578796 16.4744376,11.2011613 16.7169538,11.4902979 C16.959336,11.7796987 17.250552,12.1043827 17.5906466,12.4648343 C17.9309646,12.825418 18.228525,13.0934552 18.4835513,13.2697827 L18.7385775,13.420694 C18.9088929,13.5213896 19.130008,13.6136279 19.4021909,13.6974528 C19.6738823,13.78125 19.9119307,13.8022009 20.1163359,13.7603105 L23.3817712,13.7100948 C23.7047539,13.7100948 23.9560718,13.6573684 24.13434,13.5527524 C24.3129656,13.4479602 24.4190776,13.3325082 24.4533015,13.206925 C24.4874361,13.0812096 24.4892679,12.9385795 24.4597799,12.7791227 C24.4295324,12.6200624 24.3997317,12.5088391 24.370065,12.4459814 Z" id="Shape" fill="#000000" fill-rule="nonzero"></path>
    </g>
</svg>